<svg xmlns="http://www.w3.org/2000/svg" width="29.285" height="14.266" viewBox="0 0 29.285 14.266">
    <path id="Контур_24" data-name="Контур 24" d="M2,12.679c.17-2.683.406-4.13,2.778-5.908m0,0c2.933-.071,7.83-.133,7.83-.133s8.166.035,13.282.133m-21.111,0c-.13-.011,6.272-2.161,9.352-4.148a4.353,4.353,0,0,1,.935-.35c1.924-.619,6.455-.149,13.047.35l-.463,1.006,1.111,3.143V8.656l.926,1.383-.926,2.137H26.167m-17.037,0h10" transform="translate(-1.251 -1.295)" fill="none" stroke="#0b304b" stroke-width="1.5"/>
    <circle id="Эллипс_28" data-name="Эллипс 28" cx="2.232" cy="2.232" r="2.232" transform="translate(2.513 9.052)" fill="none" stroke="#0b304b" stroke-width="1.5"/>
    <path id="Контур_49" data-name="Контур 49" d="M2.232,0A2.232,2.232,0,1,1,0,2.232,2.232,2.232,0,0,1,2.232,0Z" transform="translate(19.161 9.052)" fill="none" stroke="#0b304b" stroke-width="1.5"/>
</svg>
