<svg xmlns="http://www.w3.org/2000/svg" xmlns:xlink="http://www.w3.org/1999/xlink" width="158" height="103.043" viewBox="0 0 158 103.043">
  <defs>
    <clipPath id="clip-path">
      <rect id="Прямоугольник_3" data-name="Прямоугольник 3" width="158" height="42" transform="translate(0 77)" fill="#fff"/>
    </clipPath>
  </defs>
  <g id="LOGO" transform="translate(0 -15.957)">
    <path id="Контур_1" data-name="Контур 1" d="M50.068,33.219H41.4l-.67-3.973H77.953v3.973H76.948V30.178H49.753ZM40.577,28.34H77.943V25.428H40.093Zm23.371,9.77h14V36.024H63.953ZM39.728,24.5h8.855l-1.676-2.914H76.949v2.9h1.005V20.58H36.985ZM93.179,20.58H79.055v5.853h14.13ZM43.414,43.149c.23.349.655.754,2.068,1.138.684.168,1.444.335,2.5.57H62.97V42.79H43.22a2.173,2.173,0,0,0,.191.359Zm-.856-3.157H62.97V34.156H41.554Zm21.391,8.187c5.228,1.029,10.338,1.979,14.008,2.554V40.939H63.948Zm30.2-14.96h21.461l.98-5.854H94.148Zm0-10.777V24.52l23.083-.008,1.447-2.069ZM129,15.957l-6.8,9.6c-.745,4.077-2.694,14.578-2.915,15.6-.64,2.939-.947,4.727-6.716,6.1C104.888,49.077,87.32,52.618,78.494,54c-8.822-1.381-26.382-4.923-34.063-6.744-5.769-1.372-6.076-3.16-6.716-6.1-.221-1.015-2.17-11.523-2.916-15.6l-6.8-9.6Zm-5.362,1.8H33.369l5.362,7.656c1.34,7.962,2.17,13.081,2.513,14.866.6,3.1.7,4.444,3.909,5.308C51.53,47.1,70.012,50.9,78.506,52.182,87,50.9,105.483,47.1,111.864,45.592c3.207-.865,3.312-2.2,3.909-5.308.335-1.785,1.173-6.9,2.513-14.866ZM79.055,38.11h1.005V35.163h26.705c-.035.287-.284,2.262-.413,2.956h8.433l.67-3.963h-36.4Zm0,3.817h35.02l.567-2.9H79.055Zm14.13-12.679H79.055v2.089h14.13ZM79.055,42.79h34.739a1.8,1.8,0,0,1-.188.359c-.229.349-.65.778-2.071,1.131-6.29,1.565-23.577,4.993-32.48,6.449Zm1.005,6.766c1.6-.29,5.516-.972,6.912-1.238,14.212-2.716,16.65-3.13,17.835-4.524H80.061Z" fill="#f6f6f6"/>
    <g id="Сгруппировать_1" data-name="Сгруппировать 1" clip-path="url(#clip-path)">
      <path id="Контур_2" data-name="Контур 2" d="M92.529,96.442c-.976.777-2.2.852-2.715.172s-.154-1.862.822-2.638,2.2-.854,2.715-.172S93.505,95.665,92.529,96.442ZM74.658,99.527a2.512,2.512,0,0,0-1.594-.388,6.622,6.622,0,0,0-2.733.908,33.2,33.2,0,0,0-10.625,9.806c-.991,1.533-.991,2.214-.705,2.465.257.225,1.048.1,2.174-.554C64.6,109.807,70.609,103.779,74.658,99.527Zm-19.648-.019a2.152,2.152,0,0,0-1.489-.339,7.177,7.177,0,0,0-2.914.806,35.2,35.2,0,0,0-11.2,9.841c-1.033,1.507-1.042,2.26-.742,2.561.249.251,1.031.044,2.171-.581C44.292,109.916,50.851,103.657,55.009,99.508Zm37.069,8.216c7.155-4.788,13.36-10.92,16.133-14.843,1.508-2.122.449-3.092-1.74-1.7-5.778,3.681-12.957,11.518-14.395,16.542Zm44-8.216a2.167,2.167,0,0,0-1.491-.339,7.155,7.155,0,0,0-2.913.806,35.225,35.225,0,0,0-11.205,9.841c-1.03,1.507-1.039,2.26-.733,2.561.249.251,1.033.044,2.174-.581,3.442-1.88,10.006-8.139,14.166-12.288Zm-85.636-.994c3.253-.923,6.73-.862,8.917.553a8.664,8.664,0,0,0-.768.553c-4.459,3.69-9.033,8.758-10.222,10.835-.744,1.292-.311,1.646-.24,1.714,1.273,1.205,6.248-2.016,12.77-8.083a24.752,24.752,0,0,1,8.872-5.546,10.959,10.959,0,0,1,3.891-.618,10.783,10.783,0,0,1,2.552.38c2.14-2.072,5.917-5.561,8.7-8.177,1.355,0,2.341,0,3.724-.054a4.4,4.4,0,0,0-.663.482c-2.061,1.873-6.294,5.677-9.831,9.04-4.334,4.114-8.163,8.247-9.525,10.656-.528.938-.707,1.585-.28,1.932,1.009.821,5.338-1.421,11.742-7.393,2.6-2.776,5.651-5.675,6.752-6.664,1.308,0,2.444,0,3.83-.024a9.9,9.9,0,0,0-1.182.886c-2.79,2.583-7.452,6.952-9.225,9.544-1.423,2.085-1.15,3.053-.529,3.516,1.165.867,5.442-.236,9.507-2.5a11.06,11.06,0,0,1,1.694-5.871c2.061-3.592,6.569-8.743,14.025-13.033,2.214-1.271,4.105-1.69,4.927-.9.786.76.592,2.358-.7,4.315-3.68,5.566-10.352,10.612-17.426,15.237-.427,2.784,3.7,5.019,12.244.31a10.532,10.532,0,0,1,1.883-5.951,41.667,41.667,0,0,1,14.141-13.05c2.221-1.268,4.03-1.747,4.928-.869.806.79.612,2.365-.683,4.323-3.47,5.245-8.733,9.391-17.611,15.376a2.415,2.415,0,0,0,.421,2.195c1.114,1.176,3.9.041,5.266-.527,4.03-1.681,5.329-3.548,10.2-7.323,3.6-2.793,6.078-4.35,8.976-5.247a12.165,12.165,0,0,1,4.858-.592,11.675,11.675,0,0,1,4.059,1.138,9.09,9.09,0,0,0-.769.553c-4.457,3.69-9.022,8.671-10.213,10.8-.41.738-.514,1.382-.183,1.712.706.716,4.847-.553,12.283-7.821a29.474,29.474,0,0,1,2.777-2.5,22.594,22.594,0,0,1,7.7-4.1c2.8-.815,5.593-.738,5.943,1.391.419,2.534-2.51,4.764-5.395,5.788l-.09-1.107c2.14-1.437,4-3.738,3.153-4.952-.5-.721-1.951-.618-4.056.345-2.361,1.076-6.2,4.515-8.183,7.668-1.329,2.121-1.621,4.267-.6,5.274s2.656,1.107,4.616.668a20.751,20.751,0,0,0,8.835-4.922l.253,1.048a19.656,19.656,0,0,1-8.916,4.95c-3.255.775-5.678.278-7.083-1.164-1.2-1.225-1.407-3.229-.7-5.288-6.657,6.29-10.469,6.937-11.777,5.775-1.132-1.006-.793-3.345.54-5.138a45.917,45.917,0,0,1-5.964,4.505c-2.863,1.681-4.437,1.026-4.728-.821a6.1,6.1,0,0,1,.991-3.533c-5.7,4.919-10.009,5.913-12.533,5.1a3.4,3.4,0,0,1-2.16-2.489c-7.435,3.974-13.528,3.727-14.838-.12-4.525,2.5-8.9,3.624-10.612,2.539-1.335-.847-1.931-2.583-.583-5.336-4.667,4.284-8.774,6.714-10.9,5.319-1.3-.85-.892-3.487.366-5.276a44.3,44.3,0,0,1-5.7,4.544c-2.825,1.756-4.506,1.107-4.776-.751a7.063,7.063,0,0,1,1.066-3.771c-5.964,5.535-9.923,6.457-11.253,5.142-1.081-1.072-.8-3.264.55-5.079a46.083,46.083,0,0,1-5.964,4.505c-2.863,1.681-4.438,1.026-4.728-.821a6.82,6.82,0,0,1,1.3-4.072C30.463,113.919,20.925,119.009,14.5,119c-8-.013-10.3-5.8-7.413-12.73a25.674,25.674,0,0,1,5.331-7.533C5.153,98.263,1.793,96.58.436,94.04c-.945-1.755-.531-4.941,2.9-7.826,5.206-4.384,15.1-7.184,22.693-8.044a34.339,34.339,0,0,1,4.03-.245l.7,1.28c-6.725-.625-19.1,2.594-24.363,7.38-3.612,3.3-3.363,6.315-1.574,8.206,1.282,1.35,3.444,2.439,8.9,2.69.575-.531,1.167-1.053,1.779-1.557C26.451,86.918,42.37,79.181,56.048,77.2c3.114-.452,6-.268,6.595,1.935.733,2.719-2.063,6.961-11.782,11.833a84.261,84.261,0,0,1-33.695,7.911,43.828,43.828,0,0,0-6.1,7.843c-3.574,6.037-1.92,10.994,3.759,11.018,7.924.028,18.685-7.288,25.785-13.59,0,0,4.711-4.2,9.831-5.636ZM18.5,97.591c12.068-.38,22.367-3.974,33.292-9.308,6.88-3.356,10-6.826,9.549-8.7-.366-1.563-2.706-1.574-5.175-1.188-12.768,2-27.8,10.241-35.537,17.2-.749.67-1.449,1.336-2.13,2Zm88.452,10.295c7.193-4.819,13.844-11.335,16.554-15.326,1.227-1.806,0-2.622-1.636-1.605-5.752,3.574-13.372,11.719-14.92,16.933Z" fill="#f6f6f6"/>
    </g>
  </g>
</svg>
