<svg xmlns="http://www.w3.org/2000/svg" width="101" height="38.043" viewBox="0 0 101 38.043">
    <path id="Контур_1" data-name="Контур 1" d="M50.068,33.219H41.4l-.67-3.973H77.953v3.973H76.948V30.178H49.753ZM40.577,28.34H77.943V25.428H40.093Zm23.371,9.77h14V36.024H63.953ZM39.728,24.5h8.855l-1.676-2.914H76.949v2.9h1.005V20.58H36.985ZM93.179,20.58H79.055v5.853h14.13ZM43.414,43.149c.23.349.655.754,2.068,1.138.684.168,1.444.335,2.5.57H62.97V42.79H43.22a2.173,2.173,0,0,0,.191.359Zm-.856-3.157H62.97V34.156H41.554Zm21.391,8.187c5.228,1.029,10.338,1.979,14.008,2.554V40.939H63.948Zm30.2-14.96h21.461l.98-5.854H94.148Zm0-10.777V24.52l23.083-.008,1.447-2.069ZM129,15.957l-6.8,9.6c-.745,4.077-2.694,14.578-2.915,15.6-.64,2.939-.947,4.727-6.716,6.1C104.888,49.077,87.32,52.618,78.494,54c-8.822-1.381-26.382-4.923-34.063-6.744-5.769-1.372-6.076-3.16-6.716-6.1-.221-1.015-2.17-11.523-2.916-15.6l-6.8-9.6Zm-5.362,1.8H33.369l5.362,7.656c1.34,7.962,2.17,13.081,2.513,14.866.6,3.1.7,4.444,3.909,5.308C51.53,47.1,70.012,50.9,78.506,52.182,87,50.9,105.483,47.1,111.864,45.592c3.207-.865,3.312-2.2,3.909-5.308.335-1.785,1.173-6.9,2.513-14.866ZM79.055,38.11h1.005V35.163h26.705c-.035.287-.284,2.262-.413,2.956h8.433l.67-3.963h-36.4Zm0,3.817h35.02l.567-2.9H79.055Zm14.13-12.679H79.055v2.089h14.13ZM79.055,42.79h34.739a1.8,1.8,0,0,1-.188.359c-.229.349-.65.778-2.071,1.131-6.29,1.565-23.577,4.993-32.48,6.449Zm1.005,6.766c1.6-.29,5.516-.972,6.912-1.238,14.212-2.716,16.65-3.13,17.835-4.524H80.061Z" transform="translate(-28 -15.957)" fill="#f6f6f6"/>
</svg>
