<svg xmlns="http://www.w3.org/2000/svg" xmlns:xlink="http://www.w3.org/1999/xlink" width="64.083" height="50.069" viewBox="0 0 64.083 50.069">
  <defs>
    <clipPath id="clip-path">
      <rect id="Прямоугольник_3" data-name="Прямоугольник 3" width="61.948" height="16.778" transform="translate(0 0)" fill="#12141f"/>
    </clipPath>
  </defs>
  <g id="LOGO" transform="matrix(0.978, 0.208, -0.208, 0.978, 11.707, -17.888)">
    <path id="Контур_1" data-name="Контур 1" d="M36.641,22.717H33.247l-.262-1.556H47.561v1.556h-.394V21.526H36.518Zm-3.716-1.911H47.557v-1.14H32.735Zm9.152,3.826h5.482v-.817h-5.48ZM32.592,19.3H36.06L35.4,18.162H47.168V19.3h.394V17.768H31.518Zm20.931-1.535H47.993v2.292h5.533ZM34.036,26.605c.09.137.257.3.81.446.268.066.566.131.978.223h5.87v-.809H33.96a.851.851,0,0,0,.075.14ZM33.7,25.369h7.993V23.084H33.308Zm8.376,3.206c2.047.4,4.048.775,5.485,1V25.74H42.077ZM53.9,22.717h8.4l.384-2.293H53.9Zm0-4.22v.814l9.039,0,.567-.81ZM67.55,15.957l-2.663,3.759c-.292,1.6-1.055,5.708-1.141,6.109-.251,1.151-.371,1.851-2.63,2.388-3.008.713-9.887,2.1-13.343,2.641-3.455-.541-10.331-1.928-13.339-2.641-2.259-.537-2.379-1.237-2.63-2.388-.087-.4-.85-4.512-1.142-6.109L28,15.957Zm-2.1.707H30.1l2.1,3c.525,3.118.85,5.122.984,5.821.234,1.216.275,1.74,1.531,2.079,2.5.591,9.735,2.079,13.061,2.581,3.326-.5,10.564-1.988,13.063-2.581,1.256-.339,1.3-.863,1.531-2.079.131-.7.459-2.7.984-5.821ZM47.993,24.632h.394V23.478H58.844c-.014.112-.111.886-.162,1.157h3.3l.262-1.552H47.993Zm0,1.495H61.706l.222-1.136H47.993Zm5.533-4.965H47.993v.818h5.533Zm-5.533,5.3H61.6a.706.706,0,0,1-.074.14c-.09.137-.255.3-.811.443-2.463.613-9.232,1.955-12.719,2.525Zm.394,2.649c.627-.114,2.16-.381,2.707-.485,5.565-1.064,6.52-1.226,6.984-1.772H48.386Z" transform="translate(-17.036 0)" fill="#12141f"/>
    <g id="Сгруппировать_1" data-name="Сгруппировать 1" transform="translate(0 39.53)" clip-path="url(#clip-path)">
      <path id="Контур_2" data-name="Контур 2" d="M36.231,84.613c-.382.3-.861.334-1.063.067s-.06-.729.322-1.033.861-.335,1.063-.067S36.613,84.309,36.231,84.613Zm-7,1.208a.984.984,0,0,0-.624-.152,2.594,2.594,0,0,0-1.07.356,13,13,0,0,0-4.16,3.84c-.388.6-.388.867-.276.965s.41.041.851-.217A33.742,33.742,0,0,0,29.233,85.821Zm-7.694-.007a.842.842,0,0,0-.583-.133A2.81,2.81,0,0,0,19.815,86,13.783,13.783,0,0,0,15.43,89.85c-.4.59-.408.885-.291,1,.1.1.4.017.85-.228A36.5,36.5,0,0,0,21.539,85.814Zm14.516,3.217a26.641,26.641,0,0,0,6.317-5.812c.591-.831.176-1.211-.681-.665-2.263,1.441-5.074,4.51-5.637,6.478Zm17.229-3.217a.849.849,0,0,0-.584-.133A2.8,2.8,0,0,0,51.559,86a13.793,13.793,0,0,0-4.388,3.854c-.4.59-.407.885-.287,1,.1.1.4.017.851-.228a36.766,36.766,0,0,0,5.547-4.812ZM19.75,85.424a4.5,4.5,0,0,1,3.492.217,3.4,3.4,0,0,0-.3.217,22.2,22.2,0,0,0-4,4.243c-.291.506-.122.645-.094.671.5.472,2.447-.789,5-3.165a9.693,9.693,0,0,1,3.474-2.172,4.292,4.292,0,0,1,1.524-.242,4.225,4.225,0,0,1,1,.149c.838-.811,2.317-2.177,3.405-3.2.531,0,.917,0,1.458-.021a1.721,1.721,0,0,0-.26.189c-.807.733-2.465,2.223-3.85,3.54a24.083,24.083,0,0,0-3.73,4.173c-.207.367-.277.621-.11.757.4.321,2.09-.556,4.6-2.9,1.017-1.087,2.213-2.222,2.644-2.609.512,0,.957,0,1.5-.009a3.877,3.877,0,0,0-.463.347,31.2,31.2,0,0,0-3.612,3.737c-.557.816-.45,1.2-.207,1.377.456.34,2.131-.092,3.723-.98a4.331,4.331,0,0,1,.664-2.3,14.924,14.924,0,0,1,5.492-5.1c.867-.5,1.607-.662,1.929-.351s.232.923-.275,1.69c-1.441,2.18-4.054,4.155-6.824,5.967-.167,1.09,1.448,1.965,4.795.121a4.124,4.124,0,0,1,.737-2.33,16.316,16.316,0,0,1,5.537-5.11c.87-.5,1.578-.684,1.93-.34.316.309.24.926-.267,1.693-1.359,2.054-3.42,3.677-6.9,6.021a.946.946,0,0,0,.165.86c.436.46,1.529.016,2.062-.206,1.578-.658,2.087-1.389,3.994-2.868A10.967,10.967,0,0,1,51.5,85.432a4.764,4.764,0,0,1,1.9-.232,4.571,4.571,0,0,1,1.589.446,3.566,3.566,0,0,0-.3.217,21.637,21.637,0,0,0-4,4.229c-.161.289-.2.541-.072.67.276.28,1.9-.217,4.81-3.063a11.542,11.542,0,0,1,1.087-.979,8.848,8.848,0,0,1,3.017-1.607c1.1-.319,2.19-.289,2.327.545.164.992-.983,1.865-2.113,2.266l-.035-.433c.838-.563,1.568-1.464,1.235-1.939-.2-.282-.764-.242-1.588.135a9.316,9.316,0,0,0-3.2,3c-.52.831-.635,1.671-.233,2.065a1.907,1.907,0,0,0,1.808.262,8.126,8.126,0,0,0,3.46-1.927l.1.41a7.7,7.7,0,0,1-3.491,1.938,2.831,2.831,0,0,1-2.774-.456,1.993,1.993,0,0,1-.273-2.071c-2.607,2.463-4.1,2.716-4.612,2.261-.443-.394-.311-1.31.211-2.012a17.981,17.981,0,0,1-2.335,1.764c-1.121.658-1.737.4-1.851-.321a2.389,2.389,0,0,1,.388-1.383c-2.232,1.926-3.919,2.315-4.908,2a1.33,1.33,0,0,1-.846-.975c-2.912,1.556-5.3,1.459-5.81-.047-1.772.978-3.485,1.419-4.155.994-.523-.332-.756-1.011-.228-2.09-1.828,1.678-3.436,2.629-4.267,2.083-.51-.333-.349-1.365.143-2.066A17.348,17.348,0,0,1,24.243,90.9c-1.106.688-1.765.433-1.87-.294a2.766,2.766,0,0,1,.417-1.477c-2.336,2.167-3.886,2.528-4.406,2.014a1.607,1.607,0,0,1,.215-1.989,18.046,18.046,0,0,1-2.336,1.764c-1.121.658-1.738.4-1.851-.322A2.67,2.67,0,0,1,14.922,89c-3,2.456-6.731,4.45-9.246,4.446-3.134-.005-4.032-2.27-2.9-4.985a10.054,10.054,0,0,1,2.087-2.95C2.016,85.326.7,84.667.169,83.672c-.37-.687-.208-1.935,1.135-3.065,2.039-1.717,5.912-2.813,8.886-3.15a13.441,13.441,0,0,1,1.578-.1l.273.5c-2.633-.245-7.48,1.016-9.54,2.89-1.415,1.291-1.317,2.473-.616,3.213.5.529,1.349.955,3.485,1.053.225-.208.457-.412.7-.61a35.19,35.19,0,0,1,15.88-7.332c1.219-.177,2.351-.1,2.582.758.287,1.065-.808,2.726-4.614,4.634a33,33,0,0,1-13.194,3.1,17.163,17.163,0,0,0-2.389,3.071C2.931,91,3.579,92.943,5.8,92.953c3.1.011,7.317-2.854,10.1-5.322a11.475,11.475,0,0,1,3.85-2.207ZM7.243,85.063a31.085,31.085,0,0,0,13.037-3.645c2.694-1.314,3.916-2.673,3.739-3.408-.143-.612-1.059-.616-2.026-.465A30.993,30.993,0,0,0,8.076,84.281c-.293.262-.567.523-.834.783Zm34.636,4.031a26.988,26.988,0,0,0,6.482-6c.48-.707,0-1.027-.641-.629-2.252,1.4-5.236,4.589-5.842,6.631Z" transform="translate(0.002 -76.669)" fill="#12141f"/>
    </g>
  </g>
</svg>
