<svg xmlns="http://www.w3.org/2000/svg" width="26" height="21.704" viewBox="0 0 26 21.704">
    <path id="Vector_106" data-name="Vector 106" d="M1,7.77V4.246a1,1,0,0,1,.715-.958l6.4-1.9a1.353,1.353,0,0,1,1.543.927A3.246,3.246,0,0,0,13,4.5a3.246,3.246,0,0,0,3.342-2.19,1.352,1.352,0,0,1,1.543-.927l6.4,1.9A1,1,0,0,1,25,4.246V7.77a1,1,0,0,1-1.2.979L20.2,8V20a1,1,0,0,1-1,1H6.8a1,1,0,0,1-1-1V8l-3.6.749A1,1,0,0,1,1,7.77Z" transform="translate(0 -0.296)" fill="none" stroke="#f6f6f6" stroke-width="2"/>
</svg>
