<svg xmlns="http://www.w3.org/2000/svg" width="21.667" height="21.667" viewBox="0 0 21.667 21.667">
    <path id="Frame" d="M21.667,7.583h-1.31a5.331,5.331,0,0,0,.226-1.625,3.8,3.8,0,0,0-3.792-3.792c-1.757,0-2.93,1.605-3.688,3.342-.747-1.641-1.979-3.342-3.9-3.342A3.8,3.8,0,0,0,5.417,5.958a5.364,5.364,0,0,0,.226,1.625H4.333A2.169,2.169,0,0,0,2.167,9.75v2.167a2.169,2.169,0,0,0,2.167,2.167v7.583A2.169,2.169,0,0,0,6.5,23.833h13a2.169,2.169,0,0,0,2.167-2.167V14.083a2.169,2.169,0,0,0,2.167-2.167V9.75A2.169,2.169,0,0,0,21.667,7.583Zm-4.875-3.25a1.627,1.627,0,0,1,1.625,1.625c0,1.625-.678,1.625-1.083,1.625H14.649C15.2,5.876,16.006,4.333,16.792,4.333ZM7.583,5.958A1.627,1.627,0,0,1,9.208,4.333c.962,0,1.857,1.652,2.381,3.25H8.667C8.261,7.583,7.583,7.583,7.583,5.958ZM4.333,9.75h7.583v2.167H4.333ZM6.5,21.667V14.083h5.417v7.583Zm13,0H14.083V14.083H19.5Zm-5.417-9.75V9.842L14.1,9.75h7.565v2.167Z" transform="translate(-2.167 -2.167)" fill="#e5e5e5"/>
</svg>
